<?xml version="1.0" standalone="no"?><!DOCTYPE svg PUBLIC "-//W3C//DTD SVG 1.1//EN" "http://www.w3.org/Graphics/SVG/1.1/DTD/svg11.dtd"><svg width="500" height="500" version="1.1" xmlns="http://www.w3.org/2000/svg" xmlns:xlink="http://www.w3.org/1999/xlink"><defs xmlns="http://www.w3.org/1999/xhtml"><style type="text/css"><![CDATA[]]></style></defs><g transform="translate(250,250)"><text x="2" y="-210" style="text-anchor: middle; font-family: sans-serif; font-weight: bold;">REGIONS WITH THE HIGHEST FOREST COVER BY HECTARES</text><path d="M-1.0791986030486982,-199.99708830474304A200,200,0,0,1,-3.6739403974420595e-14,-200L-2.2962127484012872e-14,-125A125,125,0,0,0,-0.6744991269054363,-124.9981801904644Z" fill="#00FF00" stroke="white" style="stroke-width: 2px; opacity: 0.7;"/><path d="M-3.4039973341527023,-199.971029907207A200,200,0,0,1,-1.0791986030486982,-199.99708830474304L-0.6744991269054363,-124.9981801904644A125,125,0,0,0,-2.127498333845439,-124.98189369200438Z" fill="#03F719" stroke="white" style="stroke-width: 2px; opacity: 0.7;"/><path d="M-45.24052267800586,-194.81605454330716A200,200,0,0,1,-3.4039973341527023,-199.971029907207L-2.127498333845439,-124.98189369200438A125,125,0,0,0,-28.27532667375366,-121.76003408956699Z" fill="#09E71D" stroke="white" style="stroke-width: 2px; opacity: 0.7;"/><path d="M-108.21547207417584,-168.19456472717326A200,200,0,0,1,-45.24052267800586,-194.81605454330716L-28.27532667375366,-121.76003408956699A125,125,0,0,0,-67.6346700463599,-105.12160295448328Z" fill="#0FD721" stroke="white" style="stroke-width: 2px; opacity: 0.7;"/><path d="M-182.69882944373524,-81.37037372341939A200,200,0,0,1,-108.21547207417584,-168.19456472717326L-67.6346700463599,-105.12160295448328A125,125,0,0,0,-114.18676840233452,-50.85648357713712Z" fill="#14C824" stroke="white" style="stroke-width: 2px; opacity: 0.7;"/><path d="M-184.82284408748674,76.42327069298045A200,200,0,0,1,-182.69882944373524,-81.37037372341939L-114.18676840233452,-50.85648357713712A125,125,0,0,0,-115.51427755467921,47.76454418311278Z" fill="#1CAB29" stroke="white" style="stroke-width: 2px; opacity: 0.7;"/><path d="M-65.25737381194413,189.0541593384504A200,200,0,0,1,-184.82284408748674,76.42327069298045L-115.51427755467921,47.76454418311278A125,125,0,0,0,-40.78585863246508,118.1588495865315Z" fill="#1F9D2B" stroke="white" style="stroke-width: 2px; opacity: 0.7;"/><path d="M126.62854843099116,154.80701121803278A200,200,0,0,1,-65.25737381194413,189.0541593384504L-40.78585863246508,118.1588495865315A125,125,0,0,0,79.14284276936948,96.75438201127048Z" fill="#22902C" stroke="white" style="stroke-width: 2px; opacity: 0.7;"/><path d="M194.67408808608187,-45.84756730571907A200,200,0,0,1,126.62854843099116,154.80701121803278L79.14284276936948,96.75438201127048A125,125,0,0,0,121.67130505380116,-28.654729566074415Z" fill="#25842D" stroke="white" style="stroke-width: 2px; opacity: 0.7;"/><path d="M1.2246467991473532e-14,-200A200,200,0,0,1,194.67408808608187,-45.84756730571907L121.67130505380116,-28.654729566074415A125,125,0,0,0,7.654042494670958e-15,-125Z" fill="#29692A" stroke="white" style="stroke-width: 2px; opacity: 0.7;"/><text transform="translate(-0.4384260281951138,-162.49940856082463)" style="text-anchor: middle; font: 1.2rem times;"/><text transform="translate(-1.8213291152305564,-162.48979278789795)" style="text-anchor: middle; font: 1.2rem times;"/><text transform="translate(-19.872490594295645,-161.28029674321544)" style="text-anchor: middle; font: 1.2rem times;">Caribbean</text><text transform="translate(-63.27263353124438,-149.6757289810905)" style="text-anchor: middle; font: 1.2rem times;">Central Asia</text><text transform="translate(-123.33523253352746,-105.8048695283006)" style="text-anchor: middle; font: 1.2rem times;">Western Asia</text><text transform="translate(-162.48528025262448,-2.187167397819306)" style="text-anchor: middle; font: 1.2rem times;">Southern Africa</text><text transform="translate(-111.42352025160676,118.28376530504843)" style="text-anchor: middle; font: 1.2rem times;">Northern Africa</text><text transform="translate(28.55127840657029,159.97210538512803)" style="text-anchor: middle; font: 1.2rem times;">Western Europe</text><text transform="translate(153.89189925320562,52.187482639433874)" style="text-anchor: middle; font: 1.2rem times;">Melanesia</text><text transform="translate(100.87848724868643,-127.39615696879012)" style="text-anchor: middle; font: 1.2rem times;">Southern Europe</text></g></svg>