<svg version="1.1" xmlns="http://www.w3.org/2000/svg" xmlns:xlink="http://www.w3.org/1999/xlink" width="600" height="600"><defs><clipPath id="SiJVheUTQKZC"><path fill="none" stroke="none" d="M 50.5 5.5 L 570.5 5.5 L 570.5 554.5 L 50.5 554.5 L 50.5 5.5"/></clipPath><clipPath id="thXcVOUDtvKg"><path fill="none" stroke="none" d="M 50.5 5.5 L 570.5 5.5 L 570.5 554.5 L 50.5 554.5 L 50.5 5.5"/></clipPath><clipPath id="bbOdSemaAPPf"><path fill="none" stroke="none" d="M 50.5 5.5 L 570.5 5.5 L 570.5 554.5 L 50.5 554.5 L 50.5 5.5"/></clipPath><clipPath id="XbUcqaRWTgVE"><path fill="none" stroke="none" d="M 50.5 5.5 L 570.5 5.5 L 570.5 554.5 L 50.5 554.5 L 50.5 5.5"/></clipPath><clipPath id="RhQazdFnXhHO"><path fill="none" stroke="none" d="M 50.5 5.5 L 570.5 5.5 L 570.5 554.5 L 50.5 554.5 L 50.5 5.5"/></clipPath></defs><path fill="rgb(255,255,255)" stroke="none" paint-order="stroke" d="M 0.5 0.5 L 600.5 0.5 L 600.5 600.5 L 0.5 600.5 L 0.5 0.5" fill-opacity="1"/><rect fill="#FFFFFF" stroke="none" x="50" y="5" width="520" height="549" transform="matrix(1, 0, 0, 1, 0.5, 0.5)"/><path fill="rgb(163,78,217)" stroke="none" paint-order="stroke" d="M 50.5 5.5 L 570.5 5.5 L 570.5 554.5 L 50.5 554.5 L 50.5 5.5" fill-opacity="1"/><path fill="none" stroke="rgb(229,229,229)" paint-order="fill" d="M 50.5 5.5 L 570.5 5.5 L 570.5 554.5 L 50.5 554.5 L 50.5 5.5" stroke-opacity="1" stroke-linejoin="bevel" stroke-miterlimit="10" stroke-dasharray=""/><path fill="none" stroke="rgb(229,229,229)" paint-order="fill" d="M 110.5 554.5 L 110.5 5.5 M 183.5 554.5 L 183.5 5.5 M 255.5 554.5 L 255.5 5.5 M 328.5 554.5 L 328.5 5.5 M 401.5 554.5 L 401.5 5.5 M 474.5 554.5 L 474.5 5.5 M 546.5 554.5 L 546.5 5.5" stroke-opacity="1" stroke-linejoin="bevel" stroke-miterlimit="10" stroke-dasharray="" clip-path="url(#SiJVheUTQKZC)"/><path fill="none" stroke="rgb(229,229,229)" paint-order="fill" d="M 50.5 545.5 L 570.5 545.5 M 50.5 464.5 L 570.5 464.5 M 50.5 382.5 L 570.5 382.5 M 50.5 300.5 L 570.5 300.5 M 50.5 218.5 L 570.5 218.5 M 50.5 136.5 L 570.5 136.5 M 50.5 55.5 L 570.5 55.5" stroke-opacity="1" stroke-linejoin="bevel" stroke-miterlimit="10" stroke-dasharray="" clip-path="url(#thXcVOUDtvKg)"/><path fill="none" stroke="none"/><path fill="none" stroke="rgb(66,255,0)" paint-order="fill" d="M 74.13636016845703 529.5454711914062 L 255.9545440673828 325 L 437.7727355957031 145 L 546.8636474609375 30.454545974731445" stroke-opacity="1" stroke-linejoin="bevel" stroke-miterlimit="10" stroke-width="16" stroke-dasharray="" clip-path="url(#bbOdSemaAPPf)"/><path fill="none" stroke="none"/><path fill="rgb(0,0,0)" stroke="rgb(31,119,180)" paint-order="fill" d="M 82.13636016845703 529.5454711914062 A 8 8 0 1 1 82.13635616845737 529.5374711927395" fill-opacity="1" clip-path="url(#XbUcqaRWTgVE)" stroke-opacity="1" stroke-linejoin="bevel" stroke-miterlimit="10" stroke-dasharray=""/><path fill="rgb(0,0,0)" stroke="rgb(31,119,180)" paint-order="fill" d="M 263.9545440673828 325 A 8 8 0 1 1 263.95454006738316 324.99200000133334" fill-opacity="1" clip-path="url(#XbUcqaRWTgVE)" stroke-opacity="1" stroke-linejoin="bevel" stroke-miterlimit="10" stroke-dasharray=""/><path fill="rgb(0,0,0)" stroke="rgb(31,119,180)" paint-order="fill" d="M 445.7727355957031 145 A 8 8 0 1 1 445.7727315957035 144.99200000133334" fill-opacity="1" clip-path="url(#XbUcqaRWTgVE)" stroke-opacity="1" stroke-linejoin="bevel" stroke-miterlimit="10" stroke-dasharray=""/><path fill="rgb(0,0,0)" stroke="rgb(31,119,180)" paint-order="fill" d="M 554.8636474609375 30.454545974731445 A 8 8 0 1 1 554.8636434609379 30.446545976064773" fill-opacity="1" clip-path="url(#XbUcqaRWTgVE)" stroke-opacity="1" stroke-linejoin="bevel" stroke-miterlimit="10" stroke-dasharray=""/><path fill="none" stroke="rgb(0,0,0)" paint-order="fill" d="M 50.5 554.5 L 570.5 554.5" stroke-opacity="1" stroke-linejoin="bevel" stroke-miterlimit="10" stroke-dasharray=""/><path fill="none" stroke="rgb(0,0,0)" paint-order="fill" d="M 110.5 560.5 L 110.5 552.5 M 183.5 560.5 L 183.5 552.5 M 255.5 560.5 L 255.5 552.5 M 328.5 560.5 L 328.5 552.5 M 401.5 560.5 L 401.5 552.5 M 474.5 560.5 L 474.5 552.5 M 546.5 560.5 L 546.5 552.5" stroke-opacity="1" stroke-linejoin="bevel" stroke-miterlimit="10" stroke-dasharray=""/><path fill="none" stroke="rgb(0,0,0)" paint-order="fill" d="M 95.5 558.5 L 95.5 554.5 M 81.5 558.5 L 81.5 554.5 M 66.5 558.5 L 66.5 554.5 M 52.5 558.5 L 52.5 554.5 M 110.5 558.5 L 110.5 554.5 M 125.5 558.5 L 125.5 554.5 M 139.5 558.5 L 139.5 554.5 M 154.5 558.5 L 154.5 554.5 M 168.5 558.5 L 168.5 554.5 M 183.5 558.5 L 183.5 554.5 M 197.5 558.5 L 197.5 554.5 M 212.5 558.5 L 212.5 554.5 M 226.5 558.5 L 226.5 554.5 M 241.5 558.5 L 241.5 554.5 M 255.5 558.5 L 255.5 554.5 M 270.5 558.5 L 270.5 554.5 M 285.5 558.5 L 285.5 554.5 M 299.5 558.5 L 299.5 554.5 M 314.5 558.5 L 314.5 554.5 M 328.5 558.5 L 328.5 554.5 M 343.5 558.5 L 343.5 554.5 M 357.5 558.5 L 357.5 554.5 M 372.5 558.5 L 372.5 554.5 M 386.5 558.5 L 386.5 554.5 M 401.5 558.5 L 401.5 554.5 M 415.5 558.5 L 415.5 554.5 M 430.5 558.5 L 430.5 554.5 M 445.5 558.5 L 445.5 554.5 M 459.5 558.5 L 459.5 554.5 M 474.5 558.5 L 474.5 554.5 M 488.5 558.5 L 488.5 554.5 M 503.5 558.5 L 503.5 554.5 M 517.5 558.5 L 517.5 554.5 M 532.5 558.5 L 532.5 554.5 M 546.5 558.5 L 546.5 554.5 M 561.5 558.5 L 561.5 554.5" stroke-opacity="1" stroke-linejoin="bevel" stroke-miterlimit="10" stroke-dasharray=""/><text fill="rgb(68,68,68)" stroke="none" font-family="helvetica" font-size="11px" font-style="normal" font-weight="normal" text-decoration="normal" x="97.7646484375" y="573" text-anchor="start" dominant-baseline="alphabetic" transform="matrix(1, 0, 0, 1, 0.5, 0.5)" fill-opacity="1">2006</text><text fill="rgb(68,68,68)" stroke="none" font-family="helvetica" font-size="11px" font-style="normal" font-weight="normal" text-decoration="normal" x="170.49192810058594" y="573" text-anchor="start" dominant-baseline="alphabetic" transform="matrix(1, 0, 0, 1, 0.5, 0.5)" fill-opacity="1">2008</text><text fill="rgb(68,68,68)" stroke="none" font-family="helvetica" font-size="11px" font-style="normal" font-weight="normal" text-decoration="normal" x="243.2191925048828" y="573" text-anchor="start" dominant-baseline="alphabetic" transform="matrix(1, 0, 0, 1, 0.5, 0.5)" fill-opacity="1">2010</text><text fill="rgb(68,68,68)" stroke="none" font-family="helvetica" font-size="11px" font-style="normal" font-weight="normal" text-decoration="normal" x="315.94647216796875" y="573" text-anchor="start" dominant-baseline="alphabetic" transform="matrix(1, 0, 0, 1, 0.5, 0.5)" fill-opacity="1">2012</text><text fill="rgb(68,68,68)" stroke="none" font-family="helvetica" font-size="11px" font-style="normal" font-weight="normal" text-decoration="normal" x="388.6737365722656" y="573" text-anchor="start" dominant-baseline="alphabetic" transform="matrix(1, 0, 0, 1, 0.5, 0.5)" fill-opacity="1">2014</text><text fill="rgb(68,68,68)" stroke="none" font-family="helvetica" font-size="11px" font-style="normal" font-weight="normal" text-decoration="normal" x="461.4010009765625" y="573" text-anchor="start" dominant-baseline="alphabetic" transform="matrix(1, 0, 0, 1, 0.5, 0.5)" fill-opacity="1">2016</text><text fill="rgb(68,68,68)" stroke="none" font-family="helvetica" font-size="11px" font-style="normal" font-weight="normal" text-decoration="normal" x="534.1282958984375" y="573" text-anchor="start" dominant-baseline="alphabetic" transform="matrix(1, 0, 0, 1, 0.5, 0.5)" fill-opacity="1">2018</text><text fill="rgb(68,68,68)" stroke="none" font-family="helvetica" font-size="14px" font-style="normal" font-weight="bold" text-decoration="normal" x="177.74169921875" y="594" text-anchor="start" dominant-baseline="alphabetic" transform="matrix(1, 0, 0, 1, 0.5, 0.5)" fill-opacity="1">URBAN SPRAWL by YEAR 2005 to 2018</text><path fill="none" stroke="rgb(0,0,0)" paint-order="fill" d="M 50.5 554.5 L 50.5 5.5" stroke-opacity="1" stroke-linejoin="bevel" stroke-miterlimit="10" stroke-dasharray=""/><path fill="none" stroke="rgb(0,0,0)" paint-order="fill" d="M 44.5 545.5 L 52.5 545.5 M 44.5 464.5 L 52.5 464.5 M 44.5 382.5 L 52.5 382.5 M 44.5 300.5 L 52.5 300.5 M 44.5 218.5 L 52.5 218.5 M 44.5 136.5 L 52.5 136.5 M 44.5 55.5 L 52.5 55.5" stroke-opacity="1" stroke-linejoin="bevel" stroke-miterlimit="10" stroke-dasharray=""/><path fill="none" stroke="rgb(0,0,0)" paint-order="fill" d="M 46.5 545.5 L 50.5 545.5 M 46.5 529.5 L 50.5 529.5 M 46.5 513.5 L 50.5 513.5 M 46.5 496.5 L 50.5 496.5 M 46.5 480.5 L 50.5 480.5 M 46.5 464.5 L 50.5 464.5 M 46.5 447.5 L 50.5 447.5 M 46.5 431.5 L 50.5 431.5 M 46.5 415.5 L 50.5 415.5 M 46.5 398.5 L 50.5 398.5 M 46.5 382.5 L 50.5 382.5 M 46.5 365.5 L 50.5 365.5 M 46.5 349.5 L 50.5 349.5 M 46.5 333.5 L 50.5 333.5 M 46.5 316.5 L 50.5 316.5 M 46.5 300.5 L 50.5 300.5 M 46.5 284.5 L 50.5 284.5 M 46.5 267.5 L 50.5 267.5 M 46.5 251.5 L 50.5 251.5 M 46.5 235.5 L 50.5 235.5 M 46.5 218.5 L 50.5 218.5 M 46.5 202.5 L 50.5 202.5 M 46.5 185.5 L 50.5 185.5 M 46.5 169.5 L 50.5 169.5 M 46.5 153.5 L 50.5 153.5 M 46.5 136.5 L 50.5 136.5 M 46.5 120.5 L 50.5 120.5 M 46.5 104.5 L 50.5 104.5 M 46.5 87.5 L 50.5 87.5 M 46.5 71.5 L 50.5 71.5 M 46.5 55.5 L 50.5 55.5 M 46.5 38.5 L 50.5 38.5 M 46.5 22.5 L 50.5 22.5 M 46.5 5.5 L 50.5 5.5" stroke-opacity="1" stroke-linejoin="bevel" stroke-miterlimit="10" stroke-dasharray=""/><text fill="rgb(68,68,68)" stroke="none" font-family="helvetica" font-size="11px" font-style="normal" font-weight="normal" text-decoration="normal" x="26.7646484375" y="549.4091186523438" text-anchor="start" dominant-baseline="alphabetic" transform="matrix(1, 0, 0, 1, 0.5, 0.5)" fill-opacity="1">49</text><text fill="rgb(68,68,68)" stroke="none" font-family="helvetica" font-size="11px" font-style="normal" font-weight="normal" text-decoration="normal" x="26.7646484375" y="467.5909118652344" text-anchor="start" dominant-baseline="alphabetic" transform="matrix(1, 0, 0, 1, 0.5, 0.5)" fill-opacity="1">50</text><text fill="rgb(68,68,68)" stroke="none" font-family="helvetica" font-size="11px" font-style="normal" font-weight="normal" text-decoration="normal" x="26.7646484375" y="385.7727355957031" text-anchor="start" dominant-baseline="alphabetic" transform="matrix(1, 0, 0, 1, 0.5, 0.5)" fill-opacity="1">51</text><text fill="rgb(68,68,68)" stroke="none" font-family="helvetica" font-size="11px" font-style="normal" font-weight="normal" text-decoration="normal" x="26.7646484375" y="303.9545593261719" text-anchor="start" dominant-baseline="alphabetic" transform="matrix(1, 0, 0, 1, 0.5, 0.5)" fill-opacity="1">52</text><text fill="rgb(68,68,68)" stroke="none" font-family="helvetica" font-size="11px" font-style="normal" font-weight="normal" text-decoration="normal" x="26.7646484375" y="222.13636779785156" text-anchor="start" dominant-baseline="alphabetic" transform="matrix(1, 0, 0, 1, 0.5, 0.5)" fill-opacity="1">53</text><text fill="rgb(68,68,68)" stroke="none" font-family="helvetica" font-size="11px" font-style="normal" font-weight="normal" text-decoration="normal" x="26.7646484375" y="140.31817626953125" text-anchor="start" dominant-baseline="alphabetic" transform="matrix(1, 0, 0, 1, 0.5, 0.5)" fill-opacity="1">54</text><text fill="rgb(68,68,68)" stroke="none" font-family="helvetica" font-size="11px" font-style="normal" font-weight="normal" text-decoration="normal" x="26.7646484375" y="58.5" text-anchor="start" dominant-baseline="alphabetic" transform="matrix(1, 0, 0, 1, 0.5, 0.5)" fill-opacity="1">55</text><text fill="rgb(68,68,68)" stroke="none" font-family="helvetica" font-size="14px" font-style="normal" font-weight="bold" text-decoration="normal" x="-52.3974609375" y="276.5" text-anchor="start" dominant-baseline="alphabetic" transform="matrix(6.123233995736766e-17, -1, 1, 6.123233995736766e-17, -260.2353515625, 298.7646484375)" fill-opacity="1">Urban Population (%)</text></svg>